<?xml version="1.0"?>
<!-- Generated by SVGo -->
<svg width="800" height="1192"
     xmlns="http://www.w3.org/2000/svg"
     xmlns:xlink="http://www.w3.org/1999/xlink">
<circle cx="40" cy="40" r="21" style="fill:#6b7a4d;stroke:none" />
<circle cx="40" cy="120" r="18" style="fill:#828c59;stroke:none" />
<circle cx="40" cy="200" r="17" style="fill:#8f9461;stroke:none" />
<circle cx="40" cy="280" r="25" style="fill:#5f6246;stroke:none" />
<circle cx="40" cy="360" r="29" style="fill:#484737;stroke:none" />
<circle cx="40" cy="440" r="30" style="fill:#3d3a32;stroke:none" />
<circle cx="40" cy="520" r="27" style="fill:#5c4a38;stroke:none" />
<circle cx="40" cy="600" r="28" style="fill:#6d452e;stroke:none" />
<circle cx="40" cy="680" r="29" style="fill:#633c33;stroke:none" />
<circle cx="40" cy="760" r="27" style="fill:#62493a;stroke:none" />
<circle cx="40" cy="840" r="31" style="fill:#422f35;stroke:none" />
<circle cx="40" cy="920" r="33" style="fill:#312335;stroke:none" />
<circle cx="40" cy="1000" r="35" style="fill:#21162d;stroke:none" />
<circle cx="40" cy="1080" r="36" style="fill:#1b1028;stroke:none" />
<circle cx="120" cy="40" r="22" style="fill:#68794b;stroke:none" />
<circle cx="120" cy="120" r="18" style="fill:#858d58;stroke:none" />
<circle cx="120" cy="200" r="15" style="fill:#9ea16a;stroke:none" />
<circle cx="120" cy="280" r="23" style="fill:#6d6f46;stroke:none" />
<circle cx="120" cy="360" r="27" style="fill:#53533a;stroke:none" />
<circle cx="120" cy="440" r="27" style="fill:#50513d;stroke:none" />
<circle cx="120" cy="520" r="25" style="fill:#6e582e;stroke:none" />
<circle cx="120" cy="600" r="25" style="fill:#80592c;stroke:none" />
<circle cx="120" cy="680" r="27" style="fill:#76472d;stroke:none" />
<circle cx="120" cy="760" r="30" style="fill:#4e3934;stroke:none" />
<circle cx="120" cy="840" r="31" style="fill:#4a2d2b;stroke:none" />
<circle cx="120" cy="920" r="32" style="fill:#472b2b;stroke:none" />
<circle cx="120" cy="1000" r="36" style="fill:#1c1127;stroke:none" />
<circle cx="120" cy="1080" r="37" style="fill:#1a0e24;stroke:none" />
<circle cx="200" cy="40" r="22" style="fill:#657547;stroke:none" />
<circle cx="200" cy="120" r="18" style="fill:#878e59;stroke:none" />
<circle cx="200" cy="200" r="15" style="fill:#9fa068;stroke:none" />
<circle cx="200" cy="280" r="19" style="fill:#838458;stroke:none" />
<circle cx="200" cy="360" r="28" style="fill:#4c4b36;stroke:none" />
<circle cx="200" cy="440" r="25" style="fill:#5c6248;stroke:none" />
<circle cx="200" cy="520" r="30" style="fill:#4d3925;stroke:none" />
<circle cx="200" cy="600" r="32" style="fill:#452e26;stroke:none" />
<circle cx="200" cy="680" r="33" style="fill:#34252e;stroke:none" />
<circle cx="200" cy="760" r="33" style="fill:#37272f;stroke:none" />
<circle cx="200" cy="840" r="33" style="fill:#402727;stroke:none" />
<circle cx="200" cy="920" r="27" style="fill:#704c31;stroke:none" />
<circle cx="200" cy="1000" r="29" style="fill:#5c3c2c;stroke:none" />
<circle cx="200" cy="1080" r="33" style="fill:#412325;stroke:none" />
<circle cx="280" cy="40" r="22" style="fill:#677748;stroke:none" />
<circle cx="280" cy="120" r="19" style="fill:#868a52;stroke:none" />
<circle cx="280" cy="200" r="20" style="fill:#917f4d;stroke:none" />
<circle cx="280" cy="280" r="24" style="fill:#7e5e38;stroke:none" />
<circle cx="280" cy="360" r="30" style="fill:#5b3828;stroke:none" />
<circle cx="280" cy="440" r="32" style="fill:#422825;stroke:none" />
<circle cx="280" cy="520" r="31" style="fill:#4f3124;stroke:none" />
<circle cx="280" cy="600" r="21" style="fill:#957038;stroke:none" />
<circle cx="280" cy="680" r="30" style="fill:#4c3628;stroke:none" />
<circle cx="280" cy="760" r="34" style="fill:#2f2128;stroke:none" />
<circle cx="280" cy="840" r="35" style="fill:#2a1b28;stroke:none" />
<circle cx="280" cy="920" r="18" style="fill:#b48741;stroke:none" />
<circle cx="280" cy="1000" r="22" style="fill:#966632;stroke:none" />
<circle cx="280" cy="1080" r="33" style="fill:#422222;stroke:none" />
<circle cx="360" cy="40" r="21" style="fill:#6b7a4a;stroke:none" />
<circle cx="360" cy="120" r="24" style="fill:#746337;stroke:none" />
<circle cx="360" cy="200" r="13" style="fill:#d1a852;stroke:none" />
<circle cx="360" cy="280" r="17" style="fill:#b98e43;stroke:none" />
<circle cx="360" cy="360" r="18" style="fill:#af833f;stroke:none" />
<circle cx="360" cy="440" r="27" style="fill:#69492a;stroke:none" />
<circle cx="360" cy="520" r="14" style="fill:#c4a050;stroke:none" />
<circle cx="360" cy="600" r="9" style="fill:#e5c369;stroke:none" />
<circle cx="360" cy="680" r="27" style="fill:#694c2d;stroke:none" />
<circle cx="360" cy="760" r="32" style="fill:#3e2d28;stroke:none" />
<circle cx="360" cy="840" r="34" style="fill:#2b1d27;stroke:none" />
<circle cx="360" cy="920" r="25" style="fill:#7c5934;stroke:none" />
<circle cx="360" cy="1000" r="24" style="fill:#905e2e;stroke:none" />
<circle cx="360" cy="1080" r="34" style="fill:#391e20;stroke:none" />
<circle cx="440" cy="40" r="22" style="fill:#67794c;stroke:none" />
<circle cx="440" cy="120" r="27" style="fill:#5c5135;stroke:none" />
<circle cx="440" cy="200" r="28" style="fill:#634322;stroke:none" />
<circle cx="440" cy="280" r="24" style="fill:#835d2f;stroke:none" />
<circle cx="440" cy="360" r="27" style="fill:#704d2a;stroke:none" />
<circle cx="440" cy="440" r="29" style="fill:#5d3e22;stroke:none" />
<circle cx="440" cy="520" r="14" style="fill:#c8a24b;stroke:none" />
<circle cx="440" cy="600" r="12" style="fill:#d0ac55;stroke:none" />
<circle cx="440" cy="680" r="31" style="fill:#463527;stroke:none" />
<circle cx="440" cy="760" r="35" style="fill:#221924;stroke:none" />
<circle cx="440" cy="840" r="36" style="fill:#1a1424;stroke:none" />
<circle cx="440" cy="920" r="34" style="fill:#291d26;stroke:none" />
<circle cx="440" cy="1000" r="29" style="fill:#6c3b21;stroke:none" />
<circle cx="440" cy="1080" r="36" style="fill:#23101d;stroke:none" />
<circle cx="520" cy="40" r="22" style="fill:#667847;stroke:none" />
<circle cx="520" cy="120" r="20" style="fill:#7d8454;stroke:none" />
<circle cx="520" cy="200" r="29" style="fill:#474233;stroke:none" />
<circle cx="520" cy="280" r="34" style="fill:#281e24;stroke:none" />
<circle cx="520" cy="360" r="35" style="fill:#251821;stroke:none" />
<circle cx="520" cy="440" r="35" style="fill:#29171c;stroke:none" />
<circle cx="520" cy="520" r="31" style="fill:#512e1c;stroke:none" />
<circle cx="520" cy="600" r="28" style="fill:#624223;stroke:none" />
<circle cx="520" cy="680" r="33" style="fill:#312423;stroke:none" />
<circle cx="520" cy="760" r="35" style="fill:#281d23;stroke:none" />
<circle cx="520" cy="840" r="37" style="fill:#130f22;stroke:none" />
<circle cx="520" cy="920" r="35" style="fill:#231622;stroke:none" />
<circle cx="520" cy="1000" r="32" style="fill:#532918;stroke:none" />
<circle cx="520" cy="1080" r="38" style="fill:#11081a;stroke:none" />
<circle cx="600" cy="40" r="22" style="fill:#647446;stroke:none" />
<circle cx="600" cy="120" r="19" style="fill:#818957;stroke:none" />
<circle cx="600" cy="200" r="17" style="fill:#8d9561;stroke:none" />
<circle cx="600" cy="280" r="24" style="fill:#576747;stroke:none" />
<circle cx="600" cy="360" r="28" style="fill:#454f3c;stroke:none" />
<circle cx="600" cy="440" r="28" style="fill:#454c36;stroke:none" />
<circle cx="600" cy="520" r="32" style="fill:#3e2d23;stroke:none" />
<circle cx="600" cy="600" r="33" style="fill:#392724;stroke:none" />
<circle cx="600" cy="680" r="32" style="fill:#3e2a24;stroke:none" />
<circle cx="600" cy="760" r="35" style="fill:#261621;stroke:none" />
<circle cx="600" cy="840" r="36" style="fill:#231020;stroke:none" />
<circle cx="600" cy="920" r="36" style="fill:#231123;stroke:none" />
<circle cx="600" cy="1000" r="35" style="fill:#31151a;stroke:none" />
<circle cx="600" cy="1080" r="38" style="fill:#0c0619;stroke:none" />
<circle cx="680" cy="40" r="22" style="fill:#64794e;stroke:none" />
<circle cx="680" cy="120" r="18" style="fill:#888f5b;stroke:none" />
<circle cx="680" cy="200" r="15" style="fill:#9d9f67;stroke:none" />
<circle cx="680" cy="280" r="16" style="fill:#989a61;stroke:none" />
<circle cx="680" cy="360" r="25" style="fill:#556348;stroke:none" />
<circle cx="680" cy="440" r="26" style="fill:#51573f;stroke:none" />
<circle cx="680" cy="520" r="22" style="fill:#7b6e39;stroke:none" />
<circle cx="680" cy="600" r="32" style="fill:#442e2d;stroke:none" />
<circle cx="680" cy="680" r="34" style="fill:#291e2d;stroke:none" />
<circle cx="680" cy="760" r="34" style="fill:#261e2e;stroke:none" />
<circle cx="680" cy="840" r="35" style="fill:#1f1729;stroke:none" />
<circle cx="680" cy="920" r="35" style="fill:#20192f;stroke:none" />
<circle cx="680" cy="1000" r="37" style="fill:#140e24;stroke:none" />
<circle cx="680" cy="1080" r="37" style="fill:#130a1d;stroke:none" />
<circle cx="760" cy="40" r="22" style="fill:#677950;stroke:none" />
<circle cx="760" cy="120" r="18" style="fill:#878e5b;stroke:none" />
<circle cx="760" cy="200" r="16" style="fill:#9a9b64;stroke:none" />
<circle cx="760" cy="280" r="18" style="fill:#8a8e5f;stroke:none" />
<circle cx="760" cy="360" r="25" style="fill:#585e49;stroke:none" />
<circle cx="760" cy="440" r="26" style="fill:#585a47;stroke:none" />
<circle cx="760" cy="520" r="24" style="fill:#6e6242;stroke:none" />
<circle cx="760" cy="600" r="24" style="fill:#7c6043;stroke:none" />
<circle cx="760" cy="680" r="29" style="fill:#5f3b3c;stroke:none" />
<circle cx="760" cy="760" r="30" style="fill:#4b373b;stroke:none" />
<circle cx="760" cy="840" r="32" style="fill:#3c2e3a;stroke:none" />
<circle cx="760" cy="920" r="33" style="fill:#2e2437;stroke:none" />
<circle cx="760" cy="1000" r="34" style="fill:#2f1f2f;stroke:none" />
<circle cx="760" cy="1080" r="35" style="fill:#271527;stroke:none" />
</svg>
